<?xml version="1.0" encoding="utf-8"?><svg xmlns="http://www.w3.org/2000/svg" xmlns:xlink="http://www.w3.org/1999/xlink"><symbol id="logo" viewBox="0 0 200 200" style="enable-background:new 0 0 200 200" xml:space="preserve" xmlns="http://www.w3.org/2000/svg"><path d="M125.42,78.6c12.61,0,22.86,10.26,22.86,22.86s-10.26,22.86-22.86,22.86s-22.86-10.26-22.86-22.86  S112.82,78.6,125.42,78.6 M125.42,55.74c-25.25,0-45.72,20.47-45.72,45.72c0,25.25,20.47,45.72,45.72,45.72  c25.25,0,45.72-20.47,45.72-45.72C171.15,76.21,150.68,55.74,125.42,55.74L125.42,55.74z"/><g><path d="M54.8,86.94L54.8,86.94l-21.54,48.38l24.26,10.8l10.74-24.13C74.22,108.6,68.19,92.9,54.8,86.94z"/><path d="M41.34,51.88c-5.96,13.4,0.06,29.09,13.46,35.06l10.8-24.26L41.34,51.88z"/></g></symbol><symbol viewBox="0 0 24 24" fill="none" stroke="currentColor" stroke-width="2" stroke-linecap="round" stroke-linejoin="round" id="tablerAlertCircle" xmlns="http://www.w3.org/2000/svg"><path stroke="none" d="M0 0h24v24H0z" fill="none"/><path d="M3 12a9 9 0 1 0 18 0a9 9 0 0 0 -18 0"/><path d="M12 8v4"/><path d="M12 16h.01"/></symbol><symbol viewBox="0 0 24 24" fill="none" stroke="currentColor" stroke-width="2" stroke-linecap="round" stroke-linejoin="round" id="tablerArrowsSort" xmlns="http://www.w3.org/2000/svg"><path stroke="none" d="M0 0h24v24H0z" fill="none"/><path d="M3 9l4 -4l4 4m-4 -4v14"/><path d="M21 15l-4 4l-4 -4m4 4v-14"/></symbol><symbol viewBox="0 0 24 24" fill="none" stroke="currentColor" stroke-width="2" stroke-linecap="round" stroke-linejoin="round" id="tablerBold" xmlns="http://www.w3.org/2000/svg"><path stroke="none" d="M0 0h24v24H0z" fill="none"/><path d="M7 5h6a3.5 3.5 0 0 1 0 7h-6l0 -7"/><path d="M13 12h1a3.5 3.5 0 0 1 0 7h-7v-7"/></symbol><symbol viewBox="0 0 24 24" fill="none" stroke="currentColor" stroke-width="2" stroke-linecap="round" stroke-linejoin="round" id="tablerChevronDown" xmlns="http://www.w3.org/2000/svg"><path stroke="none" d="M0 0h24v24H0z" fill="none"/><path d="M6 9l6 6l6 -6"/></symbol><symbol viewBox="0 0 24 24" fill="none" stroke="currentColor" stroke-width="2" stroke-linecap="round" stroke-linejoin="round" id="tablerChevronLeft" xmlns="http://www.w3.org/2000/svg"><path stroke="none" d="M0 0h24v24H0z" fill="none"/><path d="M15 6l-6 6l6 6"/></symbol><symbol viewBox="0 0 24 24" fill="none" stroke="currentColor" stroke-width="2" stroke-linecap="round" stroke-linejoin="round" id="tablerChevronRight" xmlns="http://www.w3.org/2000/svg"><path stroke="none" d="M0 0h24v24H0z" fill="none"/><path d="M9 6l6 6l-6 6"/></symbol><symbol viewBox="0 0 24 24" fill="none" stroke="currentColor" stroke-width="2" stroke-linecap="round" stroke-linejoin="round" id="tablerCircleCheck" xmlns="http://www.w3.org/2000/svg"><path stroke="none" d="M0 0h24v24H0z" fill="none"/><path d="M3 12a9 9 0 1 0 18 0a9 9 0 1 0 -18 0"/><path d="M9 12l2 2l4 -4"/></symbol><symbol viewBox="0 0 24 24" fill="none" stroke="currentColor" stroke-width="2" stroke-linecap="round" stroke-linejoin="round" id="tablerHorizontalRule" xmlns="http://www.w3.org/2000/svg"><path stroke="none" d="M0 0h24v24H0z" fill="none"/><path d="M3 12l0 .01"/><path d="M7 12l10 0"/><path d="M21 12l0 .01"/></symbol><symbol viewBox="0 0 24 24" fill="none" stroke="currentColor" stroke-width="2" stroke-linecap="round" stroke-linejoin="round" id="tablerInfoCircle" xmlns="http://www.w3.org/2000/svg"><path stroke="none" d="M0 0h24v24H0z" fill="none"/><path d="M3 12a9 9 0 1 0 18 0a9 9 0 0 0 -18 0"/><path d="M12 9h.01"/><path d="M11 12h1v4h1"/></symbol><symbol viewBox="0 0 24 24" fill="none" stroke="currentColor" stroke-width="2" stroke-linecap="round" stroke-linejoin="round" id="tablerItalic" xmlns="http://www.w3.org/2000/svg"><path stroke="none" d="M0 0h24v24H0z" fill="none"/><path d="M11 5l6 0"/><path d="M7 19l6 0"/><path d="M14 5l-4 14"/></symbol><symbol viewBox="0 0 24 24" fill="none" stroke="currentColor" stroke-width="2" stroke-linecap="round" stroke-linejoin="round" id="tablerList" xmlns="http://www.w3.org/2000/svg"><path stroke="none" d="M0 0h24v24H0z" fill="none"/><path d="M9 6l11 0"/><path d="M9 12l11 0"/><path d="M9 18l11 0"/><path d="M5 6l0 .01"/><path d="M5 12l0 .01"/><path d="M5 18l0 .01"/></symbol><symbol viewBox="0 0 24 24" fill="none" stroke="currentColor" stroke-width="2" stroke-linecap="round" stroke-linejoin="round" id="tablerListNumbers" xmlns="http://www.w3.org/2000/svg"><path stroke="none" d="M0 0h24v24H0z" fill="none"/><path d="M11 6h9"/><path d="M11 12h9"/><path d="M12 18h8"/><path d="M4 16a2 2 0 1 1 4 0c0 .591 -.5 1 -1 1.5l-3 2.5h4"/><path d="M6 10v-6l-2 2"/></symbol><symbol viewBox="0 0 24 24" fill="none" stroke="currentColor" stroke-width="2" stroke-linecap="round" stroke-linejoin="round" id="tablerMenu2" xmlns="http://www.w3.org/2000/svg"><path stroke="none" d="M0 0h24v24H0z" fill="none"/><path d="M4 6l16 0"/><path d="M4 12l16 0"/><path d="M4 18l16 0"/></symbol><symbol viewBox="0 0 24 24" fill="none" stroke="currentColor" stroke-width="2" stroke-linecap="round" stroke-linejoin="round" id="tablerPasswordHideIcon" xmlns="http://www.w3.org/2000/svg"><path stroke="none" d="M0 0h24v24H0z" fill="none"/><path d="M10.585 10.587a2 2 0 0 0 2.829 2.828"/><path d="M16.681 16.673a8.717 8.717 0 0 1 -4.681 1.327c-3.6 0 -6.6 -2 -9 -6c1.272 -2.12 2.712 -3.678 4.32 -4.674m2.86 -1.146a9.055 9.055 0 0 1 1.82 -.18c3.6 0 6.6 2 9 6c-.666 1.11 -1.379 2.067 -2.138 2.87"/><path d="M3 3l18 18"/></symbol><symbol viewBox="0 0 24 24" fill="none" stroke="currentColor" stroke-width="2" stroke-linecap="round" stroke-linejoin="round" id="tablerPasswordShowIcon" xmlns="http://www.w3.org/2000/svg"><path stroke="none" d="M0 0h24v24H0z" fill="none"/><path d="M10 12a2 2 0 1 0 4 0a2 2 0 0 0 -4 0"/><path d="M21 12c-2.4 4 -5.4 6 -9 6c-3.6 0 -6.6 -2 -9 -6c2.4 -4 5.4 -6 9 -6c3.6 0 6.6 2 9 6"/></symbol><symbol viewBox="0 0 24 24" fill="none" stroke="currentColor" stroke-width="2" stroke-linecap="round" stroke-linejoin="round" id="tablerPilcrow" xmlns="http://www.w3.org/2000/svg"><path stroke="none" d="M0 0h24v24H0z" fill="none"/><path d="M13 4v16"/><path d="M17 4v16"/><path d="M19 4h-9.5a4.5 4.5 0 0 0 0 9h3.5"/></symbol><symbol viewBox="0 0 24 24" fill="none" stroke="currentColor" stroke-width="2" stroke-linecap="round" stroke-linejoin="round" id="tablerSearch" xmlns="http://www.w3.org/2000/svg"><path stroke="none" d="M0 0h24v24H0z" fill="none"/><path d="M3 10a7 7 0 1 0 14 0a7 7 0 1 0 -14 0"/><path d="M21 21l-6 -6"/></symbol><symbol viewBox="0 0 24 24" fill="none" stroke="currentColor" stroke-width="2" stroke-linecap="round" stroke-linejoin="round" id="tablerSettings" xmlns="http://www.w3.org/2000/svg"><path stroke="none" d="M0 0h24v24H0z" fill="none"/><path d="M10.325 4.317c.426 -1.756 2.924 -1.756 3.35 0a1.724 1.724 0 0 0 2.573 1.066c1.543 -.94 3.31 .826 2.37 2.37a1.724 1.724 0 0 0 1.065 2.572c1.756 .426 1.756 2.924 0 3.35a1.724 1.724 0 0 0 -1.066 2.573c.94 1.543 -.826 3.31 -2.37 2.37a1.724 1.724 0 0 0 -2.572 1.065c-.426 1.756 -2.924 1.756 -3.35 0a1.724 1.724 0 0 0 -2.573 -1.066c-1.543 .94 -3.31 -.826 -2.37 -2.37a1.724 1.724 0 0 0 -1.065 -2.572c-1.756 -.426 -1.756 -2.924 0 -3.35a1.724 1.724 0 0 0 1.066 -2.573c-.94 -1.543 .826 -3.31 2.37 -2.37c1 .608 2.296 .07 2.572 -1.065"/><path d="M9 12a3 3 0 1 0 6 0a3 3 0 0 0 -6 0"/></symbol><symbol viewBox="0 0 24 24" fill="none" stroke="currentColor" stroke-width="2" stroke-linecap="round" stroke-linejoin="round" id="tablerSortAscending" xmlns="http://www.w3.org/2000/svg"><path stroke="none" d="M0 0h24v24H0z" fill="none"/><path d="M4 6l7 0"/><path d="M4 12l7 0"/><path d="M4 18l9 0"/><path d="M15 9l3 -3l3 3"/><path d="M18 6l0 12"/></symbol><symbol viewBox="0 0 24 24" fill="none" stroke="currentColor" stroke-width="2" stroke-linecap="round" stroke-linejoin="round" id="tablerSortDescending" xmlns="http://www.w3.org/2000/svg"><path stroke="none" d="M0 0h24v24H0z" fill="none"/><path d="M4 6l9 0"/><path d="M4 12l7 0"/><path d="M4 18l7 0"/><path d="M15 15l3 3l3 -3"/><path d="M18 6l0 12"/></symbol><symbol viewBox="0 0 24 24" fill="none" stroke="currentColor" stroke-width="2" stroke-linecap="round" stroke-linejoin="round" id="tablerStrikethrough" xmlns="http://www.w3.org/2000/svg"><path stroke="none" d="M0 0h24v24H0z" fill="none"/><path d="M5 12l14 0"/><path d="M16 6.5a4 2 0 0 0 -4 -1.5h-1a3.5 3.5 0 0 0 0 7h2a3.5 3.5 0 0 1 0 7h-1.5a4 2 0 0 1 -4 -1.5"/></symbol><symbol viewBox="0 0 24 24" fill="none" stroke="currentColor" stroke-width="2" stroke-linecap="round" stroke-linejoin="round" id="tablerSubscript" xmlns="http://www.w3.org/2000/svg"><path stroke="none" d="M0 0h24v24H0z" fill="none"/><path d="M5 7l8 10m-8 0l8 -10"/><path d="M21 20h-4l3.5 -4a1.73 1.73 0 0 0 -3.5 -2"/></symbol><symbol viewBox="0 0 24 24" fill="none" stroke="currentColor" stroke-width="2" stroke-linecap="round" stroke-linejoin="round" id="tablerSuperscript" xmlns="http://www.w3.org/2000/svg"><path stroke="none" d="M0 0h24v24H0z" fill="none"/><path d="M5 7l8 10m-8 0l8 -10"/><path d="M21 11h-4l3.5 -4a1.73 1.73 0 0 0 -3.5 -2"/></symbol><symbol viewBox="0 0 24 24" fill="none" stroke="currentColor" stroke-width="2" stroke-linecap="round" stroke-linejoin="round" id="tablerUnderline" xmlns="http://www.w3.org/2000/svg"><path stroke="none" d="M0 0h24v24H0z" fill="none"/><path d="M7 5v5a5 5 0 0 0 10 0v-5"/><path d="M5 19h14"/></symbol><symbol viewBox="0 0 24 24" fill="none" stroke="currentColor" stroke-width="2" stroke-linecap="round" stroke-linejoin="round" id="tablerX" xmlns="http://www.w3.org/2000/svg"><path stroke="none" d="M0 0h24v24H0z" fill="none"/><path d="M18 6l-12 12"/><path d="M6 6l12 12"/></symbol><symbol id="test--logo" viewBox="0 0 200 200" style="enable-background:new 0 0 200 200" xml:space="preserve" xmlns="http://www.w3.org/2000/svg"><path d="M125.42,78.6c12.61,0,22.86,10.26,22.86,22.86s-10.26,22.86-22.86,22.86s-22.86-10.26-22.86-22.86  S112.82,78.6,125.42,78.6 M125.42,55.74c-25.25,0-45.72,20.47-45.72,45.72c0,25.25,20.47,45.72,45.72,45.72  c25.25,0,45.72-20.47,45.72-45.72C171.15,76.21,150.68,55.74,125.42,55.74L125.42,55.74z"/><g><path d="M54.8,86.94L54.8,86.94l-21.54,48.38l24.26,10.8l10.74-24.13C74.22,108.6,68.19,92.9,54.8,86.94z"/><path d="M41.34,51.88c-5.96,13.4,0.06,29.09,13.46,35.06l10.8-24.26L41.34,51.88z"/></g></symbol></svg>